<?xml version="1.0" encoding="utf-8"?>
<!-- Generator: Adobe Illustrator 25.1.0, SVG Export Plug-In . SVG Version: 6.00 Build 0)  -->
<svg version="1.1" id="Layer_1" xmlns="http://www.w3.org/2000/svg" xmlns:xlink="http://www.w3.org/1999/xlink" x="0px" y="0px"
	 viewBox="0 0 24 24" style="enable-background:new 0 0 24 24;" xml:space="preserve">
<style type="text/css">
	.st0{fill:#FFFFFF;}
</style>
<path class="st0" d="M12,2.2c-5.5,0-10,4.5-10,10c0,4.3,2.8,8.1,6.8,9.5c0.5,0.1,0.7-0.2,0.7-0.5c0-0.2,0-1,0-1.9
	c-2.5,0.5-3.2-0.6-3.4-1.2c-0.2-0.5-0.6-1-1-1.4c-0.3-0.2-0.8-0.6,0-0.7c0.6,0.1,1.2,0.5,1.5,1c0.6,1,1.9,1.4,2.9,0.8c0,0,0,0,0,0
	c0-0.5,0.3-1,0.6-1.3c-2.2-0.2-4.6-1.1-4.6-4.9c0-1,0.4-2,1-2.7C6.4,8.2,6.4,7.2,6.8,6.4c0,0,0.8-0.3,2.8,1c1.6-0.5,3.4-0.5,5,0
	c1.9-1.3,2.8-1,2.8-1c0.4,0.8,0.4,1.8,0.1,2.7c0.7,0.7,1,1.7,1,2.7c0,3.8-2.3,4.7-4.6,4.9c0.5,0.5,0.7,1.2,0.7,1.9
	c0,1.3,0,2.4,0,2.8c0,0.3,0.2,0.6,0.7,0.5c5.2-1.8,8.1-7.4,6.3-12.7C20.1,5,16.3,2.2,12,2.2z"/>
</svg>
