<?xml version="1.0" encoding="utf-8"?>
<!-- Generator: Adobe Illustrator 25.1.0, SVG Export Plug-In . SVG Version: 6.00 Build 0)  -->
<svg version="1.1" id="Layer_1" xmlns="http://www.w3.org/2000/svg" xmlns:xlink="http://www.w3.org/1999/xlink" x="0px" y="0px"
	 viewBox="0 0 24 24" style="enable-background:new 0 0 24 24;" xml:space="preserve">
<style type="text/css">
	.st0{fill:#FFFFFF;}
</style>
<path class="st0" d="M20.5,2H3.5C2.7,2,2.1,2.6,2.1,3.4c0,0,0,0,0,0v17.1c0,0.8,0.7,1.4,1.5,1.4c0,0,0,0,0,0h16.9
	c0.8,0,1.5-0.6,1.5-1.4c0,0,0,0,0,0V3.4C21.9,2.6,21.3,2,20.5,2C20.5,2,20.5,2,20.5,2z M8.1,18.7h-3v-9h3V18.7z M6.6,8.5L6.6,8.5
	C5.7,8.5,5,7.8,5,6.9s0.7-1.6,1.6-1.6c0.9-0.1,1.6,0.5,1.7,1.4S7.8,8.4,6.9,8.5C6.8,8.5,6.7,8.5,6.6,8.5z M18.9,18.7h-3v-4.8
	c0-1.2-0.4-2-1.5-2c-0.7,0-1.3,0.4-1.5,1.1c-0.1,0.2-0.1,0.5-0.1,0.7v5h-3c0,0,0-8.2,0-9h3V11c0.6-1,1.6-1.5,2.7-1.5
	c2,0,3.4,1.3,3.4,4.1V18.7z"/>
</svg>
