<?xml version="1.0" encoding="utf-8"?>
<!-- Generator: Adobe Illustrator 25.1.0, SVG Export Plug-In . SVG Version: 6.00 Build 0)  -->
<svg version="1.1" xmlns="http://www.w3.org/2000/svg" xmlns:xlink="http://www.w3.org/1999/xlink" x="0px" y="0px"
	 viewBox="0 0 32 32" style="enable-background:new 0 0 32 32;" xml:space="preserve">
<style type="text/css">
	.st0{fill:none;}
	.st1{fill:#FFFFFF;}
</style>
<g id="Layer_1">
	<path class="st0" d="M6.5,4.5c0-1.1-0.9-2-2-2s-2,0.9-2,2H6.5z"/>
	<path class="st0" d="M26.4,25.5v-20c0-1.7-1.3-3-3-3h-19l0,0l0,0c1.1,0,2,0.9,2,2v0l0,0v23c0,1.1,0.9,2,2,2h18V25.5z"/>
	<path class="st0" d="M29.5,27.6c0,1.1-0.9,2-2,2h-19c1.1,0,2-0.9,2-2v-2h19V27.6z"/>
	<path class="st1" d="M29.5,25H27V5.5C27,3.6,25.4,2,23.5,2h-19c0,0,0,0,0,0C3.1,2,2,3.1,2,4.5C2,4.8,2.2,5,2.5,5H6v22.5
		C6,28.9,7.1,30,8.5,30h19c1.3,0,2.3-0.9,2.5-2.2c0-0.1,0-0.1,0-0.2v-2.2C30,25.2,29.8,25,29.5,25z M26,5.5V25H10.5
		c-0.3,0-0.5,0.2-0.5,0.5v2c0,0.8-0.7,1.5-1.5,1.5S7,28.3,7,27.5c0,0,0,1,0,1v-24c0,0,0,0,0,0C7,3.9,6.8,3.4,6.5,3h17
		C24.9,3,26,4.1,26,5.5z M3.1,4c0.2-0.6,0.8-1,1.4-1s1.2,0.4,1.4,1H3.1z M27.5,29L27.5,29L27.5,29h-17c0.3-0.4,0.5-0.9,0.5-1.5V26
		h18v1.5C29,28.3,28.3,29,27.5,29z"/>
</g>
<g id="Layer_2">
	<g>
		<g>
			<path class="st0" d="M20.5,6h-8C12.2,6,12,5.7,12,5.5S12.2,5,12.5,5h8C20.8,5,21,5.2,21,5.5S20.8,6,20.5,6z"/>
		</g>
		<g>
			<path class="st0" d="M23.5,9h-14C9.2,9,9,8.7,9,8.5S9.2,8,9.5,8h14C23.8,8,24,8.2,24,8.5S23.8,9,23.5,9z"/>
		</g>
		<g>
			<path class="st0" d="M23.5,12h-14C9.2,12,9,11.7,9,11.5S9.2,11,9.5,11h14c0.3,0,0.5,0.2,0.5,0.5S23.8,12,23.5,12z"/>
		</g>
		<g>
			<path class="st0" d="M23.5,15h-14C9.2,15,9,14.7,9,14.5S9.2,14,9.5,14h14c0.3,0,0.5,0.2,0.5,0.5S23.8,15,23.5,15z"/>
		</g>
		<g>
			<path class="st0" d="M23.5,18h-14C9.2,18,9,17.7,9,17.5S9.2,17,9.5,17h14c0.3,0,0.5,0.2,0.5,0.5S23.8,18,23.5,18z"/>
		</g>
		<g>
			<path class="st0" d="M23.5,21h-14C9.2,21,9,20.7,9,20.5S9.2,20,9.5,20h14c0.3,0,0.5,0.2,0.5,0.5S23.8,21,23.5,21z"/>
		</g>
	</g>
</g>
</svg>
